<svg width="103" height="20" viewBox="0 0 103 20" fill="none" xmlns="http://www.w3.org/2000/svg">
<path d="M0 1.14347C0 0.29469 0.893174 -0.257602 1.65234 0.121983L8.20703 3.39933V11.0898C8.20703 12.1709 8.81812 13.1599 9.78516 13.6435L15.6992 16.6005V18.8564C15.6992 19.7051 14.806 20.2574 14.0469 19.8778L1.57812 13.6435C0.611084 13.1599 0 12.1709 0 11.0898V1.14347ZM8.20703 1.14347C8.20703 0.29469 9.1002 -0.257602 9.85938 0.121983L16.4121 3.39835V11.0898C16.4121 12.1709 17.0232 13.1599 17.9902 13.6435L23.9062 16.6015V18.8564C23.9062 19.7051 23.0131 20.2574 22.2539 19.8778L15.6992 16.6005V8.90909C15.6991 7.82806 15.088 6.83982 14.1211 6.35636L8.20703 3.39933V1.14347ZM16.4121 1.14347C16.4121 0.29469 17.3053 -0.257602 18.0645 0.121983L30.5332 6.35636C31.5001 6.83982 32.1112 7.82806 32.1113 8.90909V18.8564C32.1113 19.7051 31.2182 20.2574 30.459 19.8778L23.9062 16.6015V8.90909C23.9061 7.82806 23.295 6.83982 22.3281 6.35636L16.4121 3.39835V1.14347Z" fill="#131416"/>
<path d="M88.5714 19.4268H86.1292L86.1318 11.803C86.0277 10.4023 85.2545 9.41216 83.7526 9.20818C81.1756 8.85814 79.6065 10.4507 79.4246 12.7912L79.4272 19.4273H76.957V7.54511H78.7984L79.1776 10.0201H79.3162C79.8064 8.49097 81.2136 7.63123 82.8991 7.28623C85.7897 6.69443 88.3963 8.31369 88.5708 11.1896V19.4263L88.5714 19.4268Z" fill="#131416"/>
<path d="M67.5335 7.34288C65.2209 7.80977 63.4779 9.43909 63.2986 11.7358H65.7672C65.8767 10.6252 66.6335 9.7297 67.7165 9.33232C68.9767 8.86996 71.1307 8.92587 72.08 9.95987C72.7183 10.6544 72.9309 11.8571 72.0932 12.4837C71.0783 13.2427 68.5648 13.012 67.295 13.0704C65.4621 13.154 63.6662 13.8627 63.2833 15.7403C62.4498 19.8275 68.0232 20.7507 70.77 18.8343C71.6474 18.2223 72.4491 16.9385 72.6194 16.4772H72.7463L73.208 19.4266H75.0536L75.0547 11.2417C75.0166 7.56902 70.5945 6.7259 67.5341 7.34389L67.5335 7.34288ZM71.9472 15.5454C71.0017 17.216 68.7916 18.5089 66.8958 17.8572C65.3849 17.3379 65.3161 15.2205 66.7979 14.6524C68.2533 14.0944 71.5014 14.6716 72.5554 13.1405C72.5184 13.9544 72.3708 14.7975 71.9478 15.5454H71.9472Z" fill="#131416"/>
<path d="M47.611 13.3769V19.4268H45.0234V3.25795L52.323 3.25694C52.3806 3.25493 52.4346 3.28162 52.4906 3.28465C55.8699 3.46042 58.0953 5.01067 58.018 8.43905C57.9477 11.5612 55.4421 13.2449 52.351 13.3779L47.6105 13.3769H47.611ZM47.611 5.34611V11.3688H52.0126C54.2157 11.2172 55.6055 10.1535 55.3733 7.92935C55.1634 5.91574 53.4975 5.41158 51.6202 5.34459C50.2954 5.29725 48.939 5.38237 47.611 5.34611Z" fill="#131416"/>
<path d="M102.238 13.8835H92.3377C92.3404 15.3124 92.9507 16.7514 94.3156 17.4484C95.2739 17.938 96.5922 18.0196 97.6187 17.6922C98.7621 17.3275 99.6167 16.3726 99.8472 15.249H102.182C101.901 17.8241 99.5368 19.5965 96.908 19.7728C93.4039 20.0075 90.6275 18.3258 90.068 14.9337C89.5502 11.7959 90.6307 8.4209 94.0882 7.42568C97.0264 6.58004 100.315 7.56821 101.681 10.2789C102.243 11.395 102.359 12.6617 102.238 13.884V13.8835ZM99.8192 12.4381C99.7822 10.8556 98.8271 9.46851 97.1475 9.13206C94.8217 8.66568 92.5942 9.82509 92.3663 12.1842C92.3594 12.2547 92.3356 12.3927 92.3801 12.4381H99.8192Z" fill="#131416"/>
<path d="M61.7575 3.25684H59.3105V19.4252H61.7575V3.25684Z" fill="#131416"/>
</svg>
